<?xml version="1.0" encoding="utf-8"?>
<!-- Generator: Adobe Illustrator 16.0.3, SVG Export Plug-In . SVG Version: 6.00 Build 0)  -->
<!DOCTYPE svg PUBLIC "-//W3C//DTD SVG 1.1//EN" "http://www.w3.org/Graphics/SVG/1.1/DTD/svg11.dtd">
<svg version="1.1" id="Layer_1" xmlns="http://www.w3.org/2000/svg" xmlns:xlink="http://www.w3.org/1999/xlink" x="0px" y="0px"
	 width="427.603px" height="198.769px" viewBox="0 0 427.603 198.769" enable-background="new 0 0 427.603 198.769"
	 xml:space="preserve">
<g>
	<path fill-rule="evenodd" clip-rule="evenodd" fill="#010201" d="M212.849,198.769C142.115,166.267,71.466,133.796,0,100.954
		C72.74,67.101,144.767,33.579,216.922,0c69.997,33.579,139.963,67.146,210.681,101.074
		C355.79,133.741,284.537,166.157,212.849,198.769z"/>
	<path fill-rule="evenodd" clip-rule="evenodd" fill="#FBED22" d="M212.856,191.468c-65.506-30.107-130.947-60.183-197.024-90.552
		C83.126,69.595,149.78,38.572,216.869,7.348c64.628,31.006,129.521,62.137,195.034,93.568
		C345.276,131.225,279.292,161.247,212.856,191.468z"/>
	<path fill-rule="evenodd" clip-rule="evenodd" fill="#010201" d="M235.788,102.82c0,18.281,0,36.135,0,54.269
		c-6.037,0.988-11.845,1.46-18.004,1.225c0-40.829,0-81.356,0-122.259c11.12-0.075,21.926,0.693,32.589,3.18
		c1.528,0.356,2.253,1.406,2.97,2.569c1.839,3.006,2.941,6.277,3.527,9.744c1.709,10.098,1.481,20.25,0.623,30.383
		c-0.441,5.318-2.001,10.207-8.853,11.967c7.84,4.387,9.293,11.225,9.285,18.734c-0.016,13.33-0.008,26.655-0.008,40.409
		c-5.214,1.769-10.727,2.391-16.708,3.344c0-4.726,0.012-9.23,0-13.743c-0.035-10.766,0.052-21.533-0.205-32.293
		C240.938,107.309,241.388,103.33,235.788,102.82z"/>
	<path fill-rule="evenodd" clip-rule="evenodd" fill="#010201" d="M166.659,153.965c2.807-37.761,5.578-75.077,8.383-112.806
		c8.62-2.601,17.611-3.296,27.137-4.491c3.753,40.724,7.486,81.212,11.246,122.003c-6.96,0.543-13.392,0.105-20.291-0.265
		c-0.463-5.97-0.914-11.789-1.36-17.586c-1.538-0.811-2.95-0.834-4.663-0.106c-0.374,5.454-0.756,10.994-1.155,16.834
		C179.287,156.848,173.105,155.746,166.659,153.965z"/>
	<path fill-rule="evenodd" clip-rule="evenodd" fill="#010201" d="M266.054,44.825c3.512,0.842,6.67,1.801,9.644,3.321
		c7.276,3.717,14.447,7.659,21.842,11.114c6.348,2.965,9.151,7.553,9.38,14.554c0.488,15.005,1.496,29.99,2.232,44.989
		c0.118,2.414,0.004,4.85-0.13,7.27c-0.378,6.912-3.788,11.897-10.277,14.142c-10.706,3.71-21.559,6.994-32.69,10.562
		C266.054,115.305,266.054,80.326,266.054,44.825z"/>
	<path fill-rule="evenodd" clip-rule="evenodd" fill="#010201" d="M163.402,148.846c-4.613-2.079-8.433-3.804-12.282-5.54
		c-0.547-1.887-1.051-3.607-1.709-5.867c-2.981,3.146-6.068,5.544-10.567,4.434c-5.33-1.312-9.183-4.556-12.106-8.977
		c-2.465-3.727-3.808-7.896-4.001-12.384c-0.683-15.914-0.874-31.834,0.185-47.733c0.719-10.775,8.596-17.917,19.915-18.497
		c10.36-0.532,18.446,5.727,20.494,16.011c1.164,5.833,1.038,11.754,0.835,17.859c-6.375,0-12.664,0-19.254,0
		c-1.114-6.371,0.569-12.673-1.339-18.393c-2.934-1.209-4.252-0.14-4.438,2.325c-0.266,3.473-0.404,6.96-0.427,10.443
		c-0.085,13.04-0.138,26.08-0.11,39.12c0.004,2.792-0.151,5.878,3.418,6.958c3.128-3.025,3.288-4.205,2.676-18.663
		c-0.534-1.621-2.522-0.675-3.473-2.045c0-3.298-0.008-6.775,0.01-10.254c0.002-0.431,0.134-0.865,0.293-1.813
		c7.365,0.516,14.698,1.028,21.88,1.53C163.402,114.489,163.402,131.353,163.402,148.846z"/>
	<path fill-rule="evenodd" clip-rule="evenodd" fill="#F4EB25" d="M235.996,83.116c0-9.061,0-17.881,0-26.741
		c3.694-0.211,4.706,2.171,4.938,4.833c0.512,5.854,0.531,11.736-0.067,17.594C240.6,81.399,239.623,83.519,235.996,83.116z"/>
	<path fill-rule="evenodd" clip-rule="evenodd" fill="#F4EB1E" d="M190.597,75.63c2.148,13.227,1.78,26.405,3.128,39.486
		c-2.093,1.189-4.139,0.372-6.647,0.59C188.277,102.05,189.437,88.839,190.597,75.63z"/>
	<path fill-rule="evenodd" clip-rule="evenodd" fill="#F8EC26" d="M286.305,65.551c3.532,0.473,5.171,2.081,5.316,5.091
		c0.795,16.633,1.649,33.266,1.465,49.923c-0.039,3.544-0.949,4.209-5.21,5.257C287.356,105.846,286.837,85.941,286.305,65.551z"/>
</g>
</svg>
