<svg xmlns:sketch="http://www.bohemiancoding.com/sketch/ns" xmlns="http://www.w3.org/2000/svg" width="20" height="20" viewBox="13.297 5.545 20 20" enable-background="new 13.297 5.545 20 20"><title>Rectangle 4</title><desc>Created with Sketch.</desc><path sketch:type="MSShapeGroup" fill="#fff" d="M26.729 17.726l6.567 6.567-1.252 1.252-6.567-6.567c-1.281 1.011-2.898 1.614-4.657 1.614-4.155 0-7.524-3.368-7.524-7.523 0-4.155 3.369-7.523 7.524-7.523 4.155 0 7.523 3.368 7.523 7.523.001 1.759-.603 3.376-1.614 4.657zm-5.908 1.096c3.177 0 5.752-2.576 5.752-5.753 0-3.178-2.575-5.753-5.752-5.753-3.178 0-5.753 2.575-5.753 5.753-.001 3.177 2.575 5.753 5.753 5.753z"/></svg>