<svg xmlns="http://www.w3.org/2000/svg" width="20" height="20" viewBox="41.297 24.444 20 20" enable-background="new 41.297 24.444 20 20"><path fill="#fff" d="M42.246 25.393c-1.265 1.265-1.265 3.315 0 4.581l4.581-4.581c-1.266-1.265-3.317-1.265-4.581 0zM53.476 41.203l7.821 3.241-3.241-7.821-9.976-9.976-4.581 4.58 9.977 9.976zm1.042-2.03c.416-.417 1.205-.303 1.379-.129-.174-.173-.287-.962.129-1.379.416-.416 1.248-.564 1.248-.564l1.863 4.494-.689.689-4.494-1.862c-.001 0 .148-.832.564-1.249z"/></svg>